<?xml version="1.0" encoding="utf-8"?>
<!-- Generator: Adobe Illustrator 24.3.0, SVG Export Plug-In . SVG Version: 6.00 Build 0)  -->
<svg version="1.1" id="Layer_1" xmlns="http://www.w3.org/2000/svg" xmlns:xlink="http://www.w3.org/1999/xlink" x="0px" y="0px"
	 width="500px" height="500px" viewBox="0 0 500 500" style="enable-background:new 0 0 500 500;" xml:space="preserve">
<style type="text/css">
	.st0{fill:#FFFFFF;}
</style>
<g>
	<g>
		<path class="st0" d="M129.6,18.1c1.7-1,3.7-1.3,5.6-1.2c70-0.1,140.1,0,210.1,0c2.3-0.1,4.7,0.5,6.4,2c3.1,2.5,4.5,6.5,5.6,10.2
			c7.3,22.6,10.5,46.4,10.3,70c-0.3,40.5-9.7,80.5-25.3,117.8c7.4-0.1,14.9-0.2,22.3,0.1c6.1,0.3,10.6,7.2,8.7,12.9
			c-1.1,4.5-5.7,7.5-10.2,7.5c-56.5,0-113,0-169.5,0c-18.3-0.1-36.7,0.2-55-0.1c-2.2-0.1-4.5,0.1-6.6-0.8c-4.2-1.7-6.5-6.6-6-10.9
			c0.4-4,3.9-7.3,7.7-8.2c4.9-1.3,10,0,15-0.3c5.1-22,6.3-44.8,5.1-67.3c-2.2-40.8-13-80.7-28.8-118.3
			C123,26.6,125.1,20.5,129.6,18.1z M149.7,37.2c13.7,35.8,22.9,73.5,25.1,111.8c1.3,22.7-0.1,45.5-4.7,67.7c10.3,0,20.7-0.1,31,0
			c7.1-16.3,11.2-33.8,13.2-51.4c2.8-25.6,0.8-51.7-5.2-76.7c-0.8-3.5-1.9-6.9-2.5-10.4c-0.8-5,2.8-10.1,7.7-11.1
			c4.9-1.3,10.6,1.8,12,6.8c10.4,36.8,13.1,76.1,5.3,113.7c-2.1,9.9-4.7,19.8-8.5,29.3c13.6-0.2,27.3,0,40.9-0.1
			c13.3-35.4,17.8-74.4,11.1-111.7c-0.5-3.1-1.6-6.2-1.5-9.4c0.2-4,2.9-7.8,6.8-8.9c3.9-1.5,8.7-0.2,11.3,3.2
			c1.8,2.2,2.3,5.2,2.9,7.9c3.7,18.1,4.9,36.8,3.9,55.3c-1.2,21.7-5.7,43.1-12.5,63.7c11.4,0,22.8-0.1,34.1,0
			c5.5-11.8,10.1-24.1,14-36.5c7.6-24.4,12.2-49.8,12.9-75.3c0.7-22.8-1.8-45.6-8.1-67.5C275.8,37.1,212.7,37.4,149.7,37.2z"/>
	</g>
	<g>
		<path class="st0" d="M90.5,146.1c2.3-0.8,4.7-0.4,7.1-0.5c10.1-0.1,20.2-0.1,30.3,0.1c4.7,0,8.9,3.9,9.7,8.5
			c0.9,4.6-1.9,9.6-6.3,11.2c-2.2,0.9-4.6,0.6-6.9,0.7c-7.8,0.1-15.5,0-23.3,0c-0.7-0.2-1.3,0.2-1.5,0.9
			c-17.7,37.1-35.2,74.4-52.8,111.6c6.2-0.8,12.4-0.5,18.6-0.6c125.7,0,251.4,0,377.1,0c3.6-0.1,7.1,0.2,10.7,0.6
			c-17.6-37.2-35.1-74.4-52.7-111.5c-0.3-1.2-1.6-0.9-2.5-0.9c-4.8,0-9.6,0.1-14.4-0.1c-5.3-0.2-9.6-5.2-9.3-10.4
			c0.1-5,4.3-9.6,9.3-9.8c7.6-0.2,15.2,0,22.8-0.1c3.9,0,7.8,2.3,9.4,5.9c20.5,43.2,40.8,86.4,61.3,129.5c2.2,4.4,3.7,9.4,7.2,13.2
			c10.3,10.2,15.9,24.8,15.8,39.2c0,35.8,0,71.7,0,107.5c0,6.2-0.3,12.4-1.9,18.4c-4.1,16-16.1,29.6-31.2,36.1
			c-6,2.6-12.4,4.1-18.9,4.4c-3.7,0.1-7.3,0-10.9,0c-124.4,0-248.8,0-373.1,0c-3.8,0-7.6,0-11.4,0c-11.5-0.5-22.8-4.6-31.8-11.8
			c-9.8-7.7-16.8-18.9-19.4-31.1c-1.7-7-1.2-14.3-1.3-21.5c0-34.2,0-68.4,0-102.6c-0.1-14.2,5.5-28.4,15.5-38.5
			c3.3-3.2,4.5-7.8,6.6-11.8c20.7-43.7,41.4-87.5,62.1-131.2C85.4,148.8,87.8,146.9,90.5,146.1z M51.8,298.5
			c-13.9,0.8-26.3,11.5-30.1,24.8c-1,3.3-1.2,6.7-1.1,10.1c-0.1,37.2,0,74.3-0.1,111.5c-0.1,9.2,3.6,18.4,10.3,24.8
			c6.4,6.5,15.7,10,24.8,9.8c129.7-0.1,259.3,0,389,0c4.8,0.1,9.6-0.7,14-2.6c10.9-4.4,19-14.9,20.6-26.6c0.7-5.6,0.2-11.2,0.4-16.7
			c0-30.4,0-60.8,0-91.2c0-4,0.1-8.1-0.1-12.1c-0.6-9.6-5.4-18.8-13.1-24.6c-6-4.7-13.7-7.5-21.3-7.3
			C313.9,298.5,182.8,298.2,51.8,298.5z"/>
	</g>
	<g>
		<path class="st0" d="M242.1,314.9c19.3-2.1,39.3,3.7,54.4,15.9c7.4,6,13.8,13.4,18.4,21.7c10,17.6,12.2,39.3,6.1,58.6
			c-5.6,18.3-18.7,34.1-35.5,43.2c-16.2,8.9-35.8,11.4-53.7,6.7c-18.4-4.6-34.7-16.6-44.7-32.7c-11.1-17.4-14.2-39.5-8.6-59.4
			c4.3-16.2,14.5-30.6,28-40.4C216.8,321.1,229.2,316.2,242.1,314.9z M246,335.1c-9.8,0.7-19.3,4.2-27.3,9.9
			c-13.7,9.7-22.5,26.1-22.6,42.9c-0.3,11.2,3.2,22.5,9.6,31.7c10.2,15,28.4,24.2,46.6,23.2c18.2-0.6,35.6-11.3,44.5-27.2
			c5.7-9.9,8.1-21.7,6.7-33.1c-1.8-16.5-11.8-31.8-26.1-40.1C268,336.8,256.9,334.3,246,335.1z"/>
	</g>
	<path class="st0" d="M57.2,353.1c1.9-0.4,3.8-0.3,5.8-0.3c28.8,0,57.5,0,86.3,0c6,0,11,6.3,9.6,12.2c-0.8,4.7-5.3,8.3-10.1,8.2
		c-28.7,0-57.5,0-86.2,0c-1.8,0-3.6,0.1-5.4-0.3c-4.2-1-7.5-4.9-7.7-9.2C48.9,358.9,52.4,354,57.2,353.1z"/>
	<path class="st0" d="M348.6,353.2c12.3-0.8,24.6-0.2,36.9-0.4c18.3,0,36.7,0,55,0c4.8-0.1,9.1,3.7,9.9,8.4
		c0.9,4.5-1.7,9.3-5.9,11.1c-1.6,0.7-3.3,0.9-5,0.9c-29.4,0-58.8,0-88.2,0c-4.5,0.1-8.9-3.1-10-7.5
		C339.7,360.4,343.3,354.3,348.6,353.2z"/>
	<path class="st0" d="M56.7,405.1c2-0.5,4.2-0.5,6.3-0.5c28.4,0,56.8,0.1,85.2,0c4.2-0.2,8.6,2.3,10.1,6.4c1.8,4.2,0.2,9.5-3.6,12.1
		c-2.3,1.7-5.3,1.9-8,2c-29.1,0-58.2,0-87.2-0.1c-4.6,0-9-3.4-9.9-8C48.3,412.1,51.7,406.4,56.7,405.1z"/>
	<path class="st0" d="M349,405c1.9-0.4,3.9-0.3,5.8-0.3c28.6,0,57.2,0,85.7,0c5.9-0.1,10.9,5.7,10,11.5c-0.4,3.9-3.3,7.2-7,8.4
		c-2.1,0.7-4.3,0.5-6.5,0.6c-28.6,0-57.2,0-85.8,0c-4.6,0-9.1-3.3-10-7.9C339.8,412,343.5,405.9,349,405z"/>
</g>
</svg>
