<?xml version="1.0" encoding="utf-8"?>
<!-- Generator: Adobe Illustrator 24.3.0, SVG Export Plug-In . SVG Version: 6.00 Build 0)  -->
<svg version="1.1" id="Layer_1" xmlns="http://www.w3.org/2000/svg" xmlns:xlink="http://www.w3.org/1999/xlink" x="0px" y="0px"
	 width="500px" height="500px" viewBox="0 0 500 500" style="enable-background:new 0 0 500 500;" xml:space="preserve">
<style type="text/css">
	.st0{fill:#FFFFFF;}
</style>
<g>
	<path class="st0" d="M418.5,0.2c6.4-1.6,13.1,5,11.5,11.4c-0.8,5.1-6.3,8.5-11.2,7.7c-3.8-0.6-7.2-3.7-7.8-7.6
		C409.9,6.7,413.3,1.1,418.5,0.2z"/>
	<g>
		<path class="st0" d="M153.8,13.1c9.4-2.9,19.3-4.3,29.2-4.3c49.5,0,99,0,148.4,0c3.1,0,6.5,0.6,8.6,3c2.6,2.4,2.8,6.3,2.8,9.6
			c-0.1,15.7,0,31.4-0.1,47.2c0,1.8,0.1,3.6-0.5,5.3c-1.2,3.8-4.9,6.7-8.9,6.7c-11.9,0.1-23.7,0.1-35.6,0
			c5.3,7.7,10.1,15.8,15.2,23.6c10.7,16.6,21.4,33.2,32.1,49.9c2.1,3.4,4.7,6.6,6,10.4c1.9,5.6-2.9,12.1-8.8,12.2
			c-11.8,0.1-23.5,0.1-35.3,0.1c-3.5,0-6.6-2-9-4.4c-13.5-12.1-27-24.3-40.6-36.4c-3.6-2.9-6.7-6.5-10.6-9
			c-0.4,7.1-0.3,14.2-0.2,21.4c4,1.2,8.3,4.1,8.5,8.6c0.5,17.7,0,35.4,0.2,53c-0.3,1.7,1.6,2.1,2.7,2.8c7.2,3.7,12.5,10.7,14.1,18.6
			c1.1,5,0.3,10.1,0.9,15.1c0.7,6.7,4.5,13,9.9,17c3.6,2.6,7.6,4.7,11.3,7c6.4,3.8,11.9,9.1,15.7,15.5c3.3,5.5,5.4,11.7,6.2,18.1
			c0.4,3.1,0.3,6.1,0.3,9.2c0,44.2,0,88.4,0,132.6c0.7,12.4-3.4,25.1-12.1,34.1c-4.7,4.9-9.4,10-15.3,13.5
			c-6.8,4.1-14.8,6.3-22.8,6.5c-46,0-92,0-138,0c-4.8-0.1-9.7,0.3-14.4-0.5c-6.6-1-13.1-3.4-18.6-7.2c-4.6-3.1-8.4-7.2-12.3-11.1
			c-9.2-9-13.9-22.1-13.3-34.9c0-45.7,0-91.4,0-137c0-12.8,5.6-25.5,15.3-33.8c4.7-4.1,10.4-6.9,15.6-10.2c5.8-3.4,10.4-9.2,12-15.8
			c1.6-7.1-0.1-14.6,2.3-21.6c1.4-3.7,3.4-7.3,6.3-10c2.8-2.8,6.3-4.6,9.5-6.9c0.4-17.4,0-34.7,0.2-52.1c0.1-2.5,0.7-5,2.3-6.9
			c1.8-1.7,4.1-2.6,6.4-3.5c0.1-5.8,0.1-11.6-0.9-17.2c-1.8-9.7-6.6-18.8-13.4-25.8c-8.4-8.9-20.2-14.7-32.5-15.6
			c-3.4-0.5-7.1,0-10-2c-2.8-1.8-4.4-5-4.3-8.3c0-11.8-0.1-23.5,0-35.3c0.1-4.1,3.2-7.7,7-8.8c12.7-4.2,25.5-8.4,38.2-12.5
			C133.9,19.6,143.8,16.2,153.8,13.1z M159.6,31.6c-20.5,6.6-41,13.4-61.4,20.2c-0.2,6.3-0.2,12.6,0,18.9
			c18.7,2.5,36.2,13,47.3,28.3c4.1-7,9.2-13.6,15.8-18.4c6.6-4.9,14.4-8.3,22.5-9.7c11.6-2.2,23.9-0.3,34.4,5.2
			c8.1,4.2,14.7,10.7,20,18c11-17.2,29.8-29.4,50.1-32.2c0.2-11.2,0.1-22.4,0.1-33.6c-33.4,0-66.9,0-100.4,0
			C178.4,28.1,168.7,28.8,159.6,31.6z M307.8,28.4c0,10.9,0,21.8,0,32.7c5.2,0.2,10.3,0.2,15.5,0c-0.1-10.9,0-21.8,0-32.7
			C318.2,28.2,313,28.2,307.8,28.4z M275.8,85.9c-9.3,4.3-17,11.6-22.1,20.4c18,16.2,36.1,32.3,54.1,48.5c1.3,1,2.5,2.5,4.3,2.4
			c3.9,0.2,7.8,0,11.7,0.1c-4.5-7.5-9.4-14.9-14.1-22.3c-10.6-16.6-21.3-33.1-32-49.7C277,85,276.4,85.7,275.8,85.9z M176.8,93.6
			c-10.5,5.8-17.8,17.4-17.6,29.5c-0.2,8.5,0,16.9,0,25.4c22.6,0,45.2,0.1,67.9,0c0-8.9,0.1-17.9,0-26.8
			c-0.5-12.4-8.5-24.2-19.9-29.2C197.6,88.1,186,88.5,176.8,93.6z M150.5,168.1c0,13.9,0,27.7,0,41.6c28.4,0,56.9,0,85.3,0
			c0.1-13.9,0-27.7,0-41.6C207.4,168.1,178.9,168.1,150.5,168.1z M138,229.7c-3.7,1.2-5.3,5.5-5.1,9.1c1,12.9-3.4,26.4-12.6,35.6
			c-5.7,6.1-13.4,9.5-20.2,14.1c-4.4,3.1-7.9,7.6-9.5,12.7c-1.3,3.7-1.3,7.7-1.3,11.6c0,45.7,0,91.4,0,137.1
			c-0.2,7.7,4.2,14.8,9.6,20c3.4,3.6,7.3,7,12,8.9c3.1,1.4,6.6,1.9,9.9,1.8c46.5,0,93,0,139.5,0c4.5,0,9.2,0.1,13.5-1.3
			c6.6-2.1,11.5-7.3,16.1-12.3c3.7-3.8,6.1-8.9,6.8-14.1c0.4-3.6,0.1-7.3,0.2-11c0.1-43.9,0-87.7,0-131.6c0.3-8.1-3.4-16.3-10-21.2
			c-5-3.9-11-6.4-16-10.3c-10.7-8.1-17.4-21.2-17.6-34.6c-0.2-3.2,0.3-6.6-0.5-9.8c-0.9-3.4-4.4-5.5-7.9-5.3c-34.2,0-68.5,0-102.7,0
			C140.9,229.2,139.4,229.3,138,229.7z"/>
	</g>
	<path class="st0" d="M392.7,17.6c6.3-1.2,12.7,5.3,11.1,11.6c-0.8,5.1-6.3,8.5-11.3,7.6c-3.8-0.6-7.2-3.7-7.8-7.6
		C383.7,24,387.3,18.3,392.7,17.6z"/>
	<path class="st0" d="M366.4,35.1c6.3-1.3,12.8,5.2,11.1,11.5c-0.8,4.9-5.9,8.3-10.7,7.7c-3.8-0.4-7.3-3.3-8.2-7
		c-0.9-3.1,0-6.6,2-9.2C362.1,36.5,364.3,35.6,366.4,35.1z"/>
	<path class="st0" d="M419.1,35.1c6.4-1.1,12.7,5.5,10.9,11.8c-0.9,5.2-6.7,8.4-11.6,7.3c-4.4-0.8-7.8-5.1-7.5-9.5
		C410.8,40,414.4,35.7,419.1,35.1z"/>
	<path class="st0" d="M391.7,52.8c5.8-1.9,12.3,3.3,12.3,9.3c-0.1,2.5-0.9,5.1-2.7,6.8c-3,3.1-8.2,4-11.9,1.8
		c-2.1-1.3-3.9-3.4-4.5-5.9C383.6,59.8,386.5,53.9,391.7,52.8z"/>
	<path class="st0" d="M418,70.2c5.6-1.7,11.8,2.9,12.2,8.7c0.1,2.6-0.7,5.4-2.6,7.3c-2.7,2.8-7.1,3.9-10.7,2.5
		c-2.9-1.1-5.2-3.6-5.9-6.6C409.8,77.2,412.8,71.3,418,70.2z"/>
</g>
</svg>
