<?xml version="1.0" encoding="utf-8"?>
<!-- Generator: Adobe Illustrator 24.3.0, SVG Export Plug-In . SVG Version: 6.00 Build 0)  -->
<svg version="1.1" id="Layer_1" xmlns="http://www.w3.org/2000/svg" xmlns:xlink="http://www.w3.org/1999/xlink" x="0px" y="0px"
	 width="500px" height="500px" viewBox="0 0 500 500" style="enable-background:new 0 0 500 500;" xml:space="preserve">
<style type="text/css">
	.st0{fill:#FFFFFF;}
</style>
<g>
	<g>
		<path class="st0" d="M132.4,104.6c6.8-6,15.9-9.2,25-9c36.8,0,73.6,0,110.3,0c9.6-0.2,19.2,3.6,26.1,10.4
			c6.3,6.1,10.1,14.5,11,23.2c24.1,0.2,48.2,0,72.3,0.1c8.9-0.1,17.6,4.1,23.6,10.6c4.3,4.7,7.2,10.7,8,17.1
			c0.9,6.6,0.3,13.3,0.4,19.9c0,2.2,0.3,4.4-0.5,6.5c-1.1,3.3-4,5.9-7.5,6.5c-5.3,1.1-11-3.1-11.4-8.5c-0.4-6.4,0-12.8-0.2-19.2
			c0.2-7.2-6.3-13.5-13.5-13.3c-24-0.1-48,0-71.9,0c0,7.1,0,14.1,0,21.2c0.1,5-4.4,9.6-9.4,9.6c-13.1,0.1-26.2,0-39.3,0.1
			c0,9.7,0.1,19.4,0,29.2c9.5,0.1,19-0.1,28.5,0.1c15.3,0.3,30.1,8.9,38,22c3.1,5,5.1,10.6,6.3,16.4c9.5,48,19.1,95.9,28.6,143.9
			c0.8,4.6,2,9.1,2.5,13.7c2.4,19.8-2.6,40.3-13.5,57c-8.4,13-20.6,23.4-34.7,29.9c-9,4.2-18.8,6.7-28.7,7.5
			c-4.3,0.4-8.5,0.2-12.8,0.3c-36.9,0-73.9,0-110.8,0c-7.5-0.1-15.1,0.3-22.6-0.7c-29.3-3.8-55.9-24.2-66.7-51.8
			c-4-10.2-5.9-21.3-5.7-32.2c0-7.1,1.2-14.1,2.7-21.1c9.7-49.2,19.5-98.3,29.3-147.4c3.6-19.5,21.1-35.6,40.9-37.1
			c10.5-0.7,21-0.2,31.6-0.3c0-9.7,0-19.5,0-29.2c-13,0-26,0-39,0c-4.9,0.1-9.6-4.2-9.6-9.2c-0.2-10.8-0.1-21.7-0.1-32.5
			c0-3.5-0.2-6.9,0.4-10.4C121.2,118.8,125.6,110.4,132.4,104.6z M138.9,127.7c-1,2.8-0.7,5.8-0.8,8.7c-0.1,8.1,0.1,16.1,0,24.2
			c29.6,0,59.2,0,88.8,0c19.6,0,39.3,0.1,58.9-0.1c-0.1-9.6,0.1-19.3-0.2-28.9c-0.4-8.7-8.2-16.3-16.9-16.5
			c-37.6-0.1-75.2,0-112.8-0.1C148.3,115,141.1,120.5,138.9,127.7z M187.3,179.7c0,9.7,0,19.4,0,29.1c16.6,0,33.2,0,49.8,0
			c0-9.7,0-19.4,0-29.1C220.5,179.6,203.9,179.7,187.3,179.7z M135.9,228.4c-8.5,1.7-16.2,7.7-19.5,15.8c-1.2,2.8-1.6,5.8-2.2,8.7
			c-9.9,49.5-19.7,99.1-29.6,148.6c-1.6,7.8-1.7,15.8-0.5,23.6c2.3,15.1,10.3,29.2,21.9,39.1c11.2,9.6,25.8,15.4,40.6,15.6
			c43,0.1,86,0,129,0c6.5,0.1,13-0.8,19.2-2.6c15-4.3,28.2-14.3,36.6-27.4c9.6-15.1,12.7-34.1,8.3-51.5
			c-9.7-48.6-19.4-97.3-29.1-145.9c-0.4-2-0.7-4-1.4-6c-2.7-8.2-9.5-15-17.9-17.5c-3.8-1.2-7.9-1.2-11.9-1.2c-43.7,0-87.3,0.1-131,0
			C144.3,228,140.1,227.6,135.9,228.4z"/>
	</g>
	<g>
		<path class="st0" d="M398,210.7c4.5-0.6,9.3,0.9,12.7,4c1.6,1.5,2.6,3.3,3.8,5.1c5.2,8,9.9,16.3,13.9,25c3.7,8.2,7,16.7,7.8,25.8
			c0.7,7.1-0.7,14.4-4.2,20.7c-4.5,8.2-12.1,14.6-21,17.3c-8.6,2.8-18.2,2-26.3-1.8c-8.3-3.8-15-11-18.3-19.6
			c-3-7.8-3.2-16.5-1-24.5c4.3-16.5,12.8-31.4,22-45.5C389.7,213.5,393.7,211.2,398,210.7z M399.9,232.3
			c-5.8,10.1-11.6,20.3-15.2,31.5c-1.8,5.7-3.1,12.2-0.5,17.8c3.5,7.6,13,11.4,20.9,9c7-1.9,12.3-8.9,12.2-16.2
			c-0.1-6.9-2.7-13.3-5.3-19.5C408.4,247.1,404.4,239.5,399.9,232.3z"/>
	</g>
	<g>
		<path class="st0" d="M207.9,275.2c15.2-0.9,30.6,2.8,43.7,10.4c13.8,8,25.2,20.1,32,34.5c10.4,21.6,10.2,48-0.6,69.5
			c-7.5,15.3-20.2,27.9-35.4,35.4c-21.5,10.9-48.1,11-69.8,0.4c-12.7-6.1-23.8-15.8-31.5-27.6c-8.7-13.1-13.3-28.9-13-44.7
			c0.1-15.2,4.8-30.3,13.3-43c8.3-12.5,20.2-22.5,34-28.6C189.1,277.9,198.4,275.7,207.9,275.2z M205.9,294.4
			c-17.1,1.7-33.1,11.3-42.9,25.5c-8.6,12.2-12.4,27.7-10.3,42.6c2.2,16.4,11.7,31.6,25.3,41c11.7,8.3,26.5,12.1,40.8,10.4
			c15.9-1.7,30.8-10.2,40.5-22.8c9.6-12.1,14.2-27.9,12.5-43.2c-1.5-15.3-9.3-29.9-21.2-39.7C238.4,297.8,221.9,292.6,205.9,294.4z"
			/>
	</g>
	<path class="st0" d="M210.8,312.6c5.3-1.2,11.3,3,11.6,8.6c0.2,7.7,0.1,15.4,0.1,23.1c7.5,0.2,15.1,0,22.6,0.1
		c4.9,0,9.2,4.4,9.3,9.2c0.4,5.1-3.8,10-8.9,10.2c-7.6,0.2-15.3,0-22.9,0.1c-0.2,7.7,0.1,15.5-0.2,23.2c-0.3,5.4-5.9,9.6-11.2,8.6
		c-4.4-0.7-8.1-4.6-8.2-9.1c-0.1-7.5-0.1-15.1,0-22.6c-7.6-0.3-15.3,0-22.9-0.2c-4.9-0.2-9.2-4.8-9-9.7c-0.1-4.7,3.8-9.2,8.5-9.6
		c7.8-0.4,15.6,0.1,23.4-0.3c-0.1-7.4,0-14.7,0-22.1C202.9,317.7,206.4,313.5,210.8,312.6z"/>
</g>
</svg>
