<?xml version="1.0" encoding="utf-8"?>
<!-- Generator: Adobe Illustrator 24.3.0, SVG Export Plug-In . SVG Version: 6.00 Build 0)  -->
<svg version="1.1" id="Layer_1" xmlns="http://www.w3.org/2000/svg" xmlns:xlink="http://www.w3.org/1999/xlink" x="0px" y="0px"
	 width="500px" height="500px" viewBox="0 0 500 500" style="enable-background:new 0 0 500 500;" xml:space="preserve">
<style type="text/css">
	.st0{fill:#FFFFFF;}
</style>
<g>
	<g>
		<path class="st0" d="M31.4,146.2c5.9-3.2,12.6-4.9,19.3-5.3c8.8-0.4,17.7,2.1,25,7c8.5,5.6,15.4,13.4,21.1,21.8
			c4.4,6.6,8.3,13.7,11.5,21c19-6.6,37.5-14.6,56.4-21.5c20.6-7.6,41.7-14.3,63.5-17.7c12.6-2,25.5-2.3,38.2-0.6
			c20.5,2.7,40.4,8.9,59.8,16c18.1,6.6,35.8,14.1,54,20.4c3.8,1.2,7.5,2.6,11.4,3.4c3.3-8.1,7.8-15.8,12.8-23
			c6-8.4,13.2-16.1,22.2-21.2c8.8-5,19.6-6.7,29.5-4.6c9.1,1.7,17.5,6.5,23.9,13.1c6.2,6,10.7,13.6,13.7,21.7
			c3.8,10.2,5.6,21,6.1,31.8c0.6,9.7-0.6,19.3-2.7,28.8c-4.7,20.7-12.7,40.5-21.4,59.8c-7.9,17.2-16.6,34-25.8,50.5
			c-6.6,11.8-13.5,23.5-20.7,34.9c-1.3,2-1.9,4.4-2.7,6.6c-3.6,9.9-7.3,19.8-11.4,29.5c-3.1,7.3-6.4,14.7-10.5,21.5
			c-2.7,4.7-7,8.1-11.1,11.6c-15.8,12.8-34.3,21.8-53.1,29.1c-18.7,7.1-38,12.4-57.7,15.8c-13.6,2.3-27.5,3.6-41.4,2.8
			c-21.3-1.3-42.4-5.8-62.8-11.9c-19.5-6-38.5-13.7-56-24.2c-8.3-5.1-16.3-10.8-23.3-17.6c-3.5-3.3-5.7-7.6-7.9-11.9
			c-7.9-15.9-13.7-32.6-19.7-49.3c-11-17.8-21.5-35.9-31.2-54.5c-9.2-17.5-17.8-35.3-25.1-53.6C10.9,265.1,7,253.8,4,242.2
			c-2.4-9.8-4.3-19.8-4-29.9c0.2-13.5,2.3-27.1,7.8-39.5C12.6,161.7,20.8,152,31.4,146.2z M39.6,166.2c-6.1,4-10.3,10.3-13,17
			c-3.9,9.5-5.1,19.9-5.2,30.1c-0.1,11.9,2.8,23.6,6.4,34.9c6.1,18.7,14.1,36.8,22.9,54.4c-0.4-3.2-0.7-6.3-0.9-9.5
			c-1.1-10.6,0.6-21.2,3.1-31.4c4.8-18.3,13.6-35.5,26-49.8c3.5-3.6,6.9-7.6,11-10.5c-3.7-8.6-8.3-17-14.1-24.4
			c-4.6-5.8-10-11.4-17.2-13.8C52.2,161.3,45,162.3,39.6,166.2z M436.7,165.3c-3.9,2.3-7.2,5.5-10.3,8.9
			c-6.6,7.8-11.7,16.7-15.8,26.1c-0.6,0.8,0.4,1.5,0.9,2c6.7,5.5,12.1,12.4,17,19.5c6.5,9.5,11.5,20,15.4,30.8
			c3.7,10.5,6.4,21.5,7.1,32.6c0.4,4.8,0,9.7-0.3,14.5c0.5-0.9,1-1.8,1.4-2.7c8.9-18.6,17.2-37.7,22.7-57.6
			c2.8-10.2,4.4-20.8,3.6-31.4c-0.4-7.8-1.6-15.6-4.3-23c-2.6-7.2-6.9-14.1-13.4-18.5C453.8,161.4,443.9,160.7,436.7,165.3z
			 M245.5,171.2c-11.5,0.4-22.9,2.6-34.1,5.3c-21.3,5.4-41.9,13.3-62.4,21.4c-10.6,4.2-21.1,8.6-31.9,12.2
			c-4.6,1.4-8.9,3.7-12.6,6.6c-7.3,5.7-13.3,12.9-18.2,20.7c-9.5,15.4-15.9,33.3-15.6,51.6c0.6,11.6,3,23.1,5.7,34.4
			c2.7,11.1,5.8,22.2,9.2,33.1c6.2,19.9,13,39.6,21,58.9c2,4.5,3.8,9.1,6.5,13.2c2,2.4,4.4,4.5,6.8,6.5c7.6,6.2,16,11.2,24.6,15.7
			c8.3,4.3,16.9,8,25.7,11.3c20.6,7.7,42.2,13.2,64.1,15.4c20.8,2.1,41.8-0.5,62-5.3c19.6-4.8,38.8-11.5,56.9-20.4
			c9.3-4.7,18.3-9.9,26.4-16.4c3.2-2.7,6.7-5.3,8.5-9.2c4.8-9.3,8.6-18.9,12.3-28.6c7.4-19.3,14.1-38.9,19.8-58.8
			c3.3-11.6,6.3-23.4,8.2-35.3c1.5-9.3,1.5-18.8-0.3-28c-2-10.4-5.6-20.4-10.5-29.8c-3.7-7.4-8.3-14.5-13.8-20.7
			c-4-4.2-8.2-8.5-13.3-11.3c-3.6-2.2-7.8-3.1-11.8-4.4c-24.2-7.9-47.4-18.2-71.5-26.5C287.6,175.9,266.8,170.3,245.5,171.2z"/>
	</g>
	<path class="st0" d="M163.7,248.9c1.9-0.4,3.9,0.2,5.8,0.5c23.2,4,46.4,7.7,69.9,9.6c12.3,1,24.7-0.1,37-1.5
		c17.8-2.1,35.4-4.9,53.1-7.9c2.6-0.4,5.2-1.3,7.8-0.6c3.7,0.8,7,3.7,7.9,7.5c1.7,5.2-1.5,11.5-6.7,13c-3.8,1-7.7,1.5-11.5,2.1
		c-14.4,2.4-28.8,4.7-43.2,6.5c-12.4,1.4-24.8,2.9-37.3,2.6c-24.2-1.1-48.1-4.9-71.9-8.8c-4.1-0.8-8.3-1.3-12.4-2.3
		c-5.5-1.4-8.8-7.9-7-13.2C155.9,252.3,159.6,249.3,163.7,248.9z"/>
	<path class="st0" d="M163.7,299.1c2.4-0.4,4.8,0.5,7.2,0.8c22.7,3.9,45.4,7.6,68.4,9.3c12,1.1,24.1-0.1,36-1.4
		c18.5-2.1,36.9-5.1,55.3-8.2c2.1-0.4,4.4-1,6.5-0.3c3.7,0.8,7,3.6,7.8,7.3c2,5.7-2.1,12.7-8.2,13.5c-22.7,4.1-45.6,7.6-68.6,9.9
		c-4.7,0.4-9.4,0.7-14.1,0.9c-12.9,0.3-25.7-1.2-38.4-2.7c-16.6-2.1-33.2-4.6-49.7-7.5c-2.5-0.4-5.1-0.7-7.1-2.3
		c-3.7-2.6-5.4-7.6-4-11.8C155.9,302.5,159.6,299.6,163.7,299.1z"/>
	<path class="st0" d="M163.7,349.4c1.8-0.4,3.5,0.2,5.3,0.4c23.7,4,47.4,7.9,71.4,9.7c11.7,0.9,23.4-0.2,35-1.5
		c19.3-2.1,38.4-5.3,57.5-8.6c4.3-1,9.1,1.1,11.2,4.9c2.6,4.3,1.7,10.3-2.2,13.6c-2.2,2.2-5.5,2.4-8.4,3c-23.9,4-47.8,7.9-71.9,9.8
		c-12.1,1.1-24.2,0.1-36.3-1.2c-20.7-2.3-41.3-5.4-61.8-9.1c-3.7-0.5-7-3.1-8.3-6.5c-1.9-4.6-0.1-10.5,4.2-13
		C160.7,350.1,162.2,349.6,163.7,349.4z"/>
</g>
</svg>
