<?xml version="1.0" encoding="utf-8"?>
<!-- Generator: Adobe Illustrator 24.3.0, SVG Export Plug-In . SVG Version: 6.00 Build 0)  -->
<svg version="1.1" id="Layer_1" xmlns="http://www.w3.org/2000/svg" xmlns:xlink="http://www.w3.org/1999/xlink" x="0px" y="0px"
	 width="500px" height="500px" viewBox="0 0 500 500" style="enable-background:new 0 0 500 500;" xml:space="preserve">
<style type="text/css">
	.st0{fill:#FFFFFF;}
</style>
<g>
	<g>
		<path class="st0" d="M364.9,18.9c5.6-0.7,11.4,0.5,16.5,3c7.3,3.7,12.7,10.7,14.5,18.6c1.7,6.8,0.6,14.2-2.8,20.3
			c-3.8,6.9-10.7,12.1-18.5,13.8c-11.7,2.9-24.8-2.8-30.7-13.3c-3.9-6.7-5-15.2-2.6-22.6C344.3,28.2,354,20.2,364.9,18.9z
			 M365.9,37.9c-3.5,1-6.4,4-7,7.7c-1.1,5.4,3.7,11.1,9.2,10.9c5.1,0.3,9.8-4.4,9.5-9.5C377.9,41.1,371.6,36.2,365.9,37.9z"/>
	</g>
	<path class="st0" d="M58.7,56.7c3.2-0.6,6.6,0.8,8.7,3.2c35.2,43.8,70.3,87.6,105.5,131.4c2.2,2.8,2.7,6.8,1.2,10
		c-2,4.7-8.1,6.8-12.6,4.5c-2-0.9-3.4-2.6-4.7-4.3c-33.5-41.8-67.1-83.5-100.6-125.3c-2-2.7-4.8-5-5.3-8.5
		C49.8,62.6,53.6,57.3,58.7,56.7z"/>
	<g>
		<path class="st0" d="M446.7,75.5c8.9-0.5,17.9,2.3,24.8,7.9c6.3,5,10.9,12.2,12.6,20.1c2.4,10,0.2,21-5.8,29.4
			c-5.2,7.4-13.4,12.7-22.3,14.4c-7.9,1.7-16.3,0.5-23.5-3.1c-9.4-4.7-16.7-13.7-19-24c-2.7-10.6,0-22.3,6.8-30.9
			C426.6,81.1,436.5,76.1,446.7,75.5z M445.1,94.7c-4.5,1-8.6,3.9-11.1,7.8c-2.7,4.3-3.4,9.8-1.8,14.7c2.4,7.6,10.5,12.9,18.5,11.8
			c6.1-0.6,11.7-4.9,14.1-10.5c3.1-7,0.8-16-5.4-20.5C455.4,94.8,450.1,93.6,445.1,94.7z"/>
	</g>
	<path class="st0" d="M320.2,122c16.5-2.8,34,1.3,47.6,11.1c12.2,8.6,21.2,21.8,24.8,36.3c19.4-2.7,39.8,4.2,53.7,18
		c10.9,10.7,17.7,25.5,18.8,40.8c16.2,5.2,29.1,19.1,33.3,35.5c2.9,10.6,2.1,22.1-2,32.3c-1.4,3.6-5.3,5.8-9.1,5.7
		c-2.2-0.2-4.3-1-6-2.5c-2-1.9-3.1-4.7-3-7.4c0.2-2.4,1.3-4.6,1.9-6.9c2-8.1,0.9-17.1-3.4-24.3c-4.7-8-12.9-13.9-22.1-15.5
		c-2.9-0.5-5.8-2-7.2-4.8c-1.8-3-1-6.6-1.3-9.9c-0.5-9.2-3.9-18.1-9.6-25.3c-6.7-8.5-16.6-14.6-27.3-16.5c-6.4-1.1-13.1-1-19.4,0.7
		c-2.2,0.5-4.4,1.4-6.6,0.8c-2.6-0.5-5.2-2.1-6.5-4.5c-1.6-2.8-1.3-6.1-1.9-9.1c-2.2-11-8.7-21.1-17.8-27.7
		c-7.9-5.8-17.8-9-27.6-8.7c-11.6,0.1-23,5.1-31.1,13.4c3.7,6.2,6.1,13.1,7.5,20.1c0.7,3-0.4,6.2-2.5,8.5c-1.8,1.7-4.2,2.7-6.7,2.8
		c-4.1,0-8.2-2.8-9.1-6.9c-1.2-5.6-3.1-11.2-6.2-16.1c-1.6-2.9-4.1-5.1-6.6-7.3c-8.1-6.8-18.6-10.7-29.2-10.5
		c-7.9-0.1-15.8,2.2-22.6,6.2c-11.8,6.9-20.2,19.4-22,33c-0.6,3.1,0.1,6.3-1,9.3c-1,3-3.6,5.2-6.7,5.9c-2.7,0.8-5.6-0.1-7.9-1.6
		c-2.5-1.8-3.8-5-3.7-8.1c0-9.4,2.3-18.9,6.3-27.4c7.9-16.4,23.1-29.2,40.8-33.9c19.4-5.5,41.2-1,56.9,11.6
		C295.4,130.2,307.4,124,320.2,122z"/>
	<path class="st0" d="M2.9,126.7c3.1-3,8.3-3.4,11.9-0.9c41.7,28.3,83.3,56.8,125,85.1c7.6,5.2,17.2,6.7,26.1,5
		c22.3-4.7,44.6-9.6,67-14.3c6-1.4,12.2-1,18.3-1c32.7,0,65.4,0,98.1,0c2.9-0.1,5.9,0.4,8.1,2.3c2.8,2.3,3.7,6.1,3.4,9.6
		c0.4,11.2-2.7,22.7-9.5,31.7c-6.9,9.1-17.1,15.8-28.4,18.1c-6,1.4-12.1,1-18.2,1.1c-9.9,0-19.8,0-29.7,0c-3.6,0.1-7.3-0.4-10.7,0.9
		c-4.8,1.6-8.8,5.6-10.4,10.4c-2,5.6-0.7,12.2,3.3,16.6c2,2.4,4.9,3.8,7.6,5.2c4,2.1,8,4.3,12.1,6.3c3.7,1.8,8,1.2,12,1.4
		c24.3,0.3,48.6,0.8,72.8,0.7c23.4-3.2,46.8-6.7,70.2-9.9c18.3-2.1,37.4,6.1,48.3,20.9c5.9,7.6,9.3,17,10.6,26.5
		c0.8,3.9-1.1,8.4-4.8,10.2c-2.2,1.1-4.7,1.3-7.1,1.7c-3.6,0.6-7.2,1.2-10.7,1.7c6.6,6.4,11.7,14.4,14,23.3c0.8,3,1.5,6,1.8,9.1
		c0.3,4.2-2.5,8.5-6.6,9.6c-5.4,1.5-10.8,2.8-16.3,4.2c2.9,3.2,5.4,6.9,7.1,10.9c2.2,5,2.8,10.6,3.9,15.9c0.3,2.5,1.4,5.1,0.8,7.7
		c-0.7,3.5-3.6,6.4-7.1,7.3c-20.8,5.6-41.6,11.2-62.4,16.8c-4.9,1.5-10.6-2-11.6-7c-1.2-4.7,2-10,6.7-11.1
		c18.1-4.8,36.1-9.8,54.2-14.5c-0.6-3.7-1.4-7.6-3.7-10.7c-3.1-4.3-8.1-7.4-13.5-7.6c-4.2-0.3-8.1,1.3-12.1,2.2
		c-8,2.1-16,4.1-24,6.2c-2.4,0.6-5,1.5-7.5,0.8c-3.2-0.7-5.9-3.1-6.8-6.2c-1.4-3.9,0.2-8.6,3.7-10.8c3.1-1.8,6.8-2,10-3.3
		c21.5-5.5,43-11,64.5-16.5c-2.9-8.5-9.8-15.4-18.2-18.5c-4.9-1.9-10.2-2.3-15.4-1.5c-28.6,4.6-57.1,9.2-85.6,13.8
		c-4.5,0.9-9.1,0.3-13.7,0.4c-19-0.3-38-0.5-57-0.8c-2.6,0-5.4-0.1-7.6-1.5c-4.5-2.6-5.8-9-2.9-13.2c1.8-2.9,5.2-4.3,8.5-4.2
		c13.9,0.3,27.8,0.3,41.7,0.6c9.1,0,18.2,0.4,27.3,0.3c43.3-6.9,86.5-14.1,129.8-20.9c-4.3-12.4-16.2-21.8-29.3-22.9
		c-5.1-0.6-10.2,0.5-15.3,1.2c-20.8,2.9-41.6,5.9-62.4,8.8c-6.1,0.3-12.3,0-18.4,0c-20.1-0.3-40.3-0.4-60.4-0.7
		c-6.6,0.1-13.2-1.6-19-4.9c-5.1-2.9-10.4-5.3-15.4-8.4c-11.5-7.4-17.7-21.9-15.5-35.4c1.4-8.9,6.3-17.2,13.4-22.6
		c6.4-5,14.5-7.5,22.5-7.4c13.1,0,26.1,0,39.2,0c2.5,0,5,0.1,7.5-0.3c8-1,15.3-5.7,19.8-12.3c2.5-3.7,4-7.9,4.8-12.3
		c-33.5,0.1-67,0-100.5,0c-3.3,0-6.4,0.9-9.6,1.5c-21,4.5-42,9-62.9,13.4c-11.8,2.3-24.4,0.4-35-5.3c-2.9-1.5-5.5-3.3-8.2-5.2
		c-40.5-27.6-81-55.1-121.5-82.7C-0.8,138.4-1.4,130.6,2.9,126.7z"/>
	<path class="st0" d="M7.1,291.5c3-0.9,6.1,0.2,8.6,1.9c28.2,18.1,56.4,36.1,84.6,54.2c5.8,5.3,11.1,11.1,16.6,16.6
		c12.3,12.8,25,25.2,37.3,38c1.9,2.1,4.2,3.8,5.7,6.2c1.9,3.5,1.5,8.2-1.4,11c-2.4,2.6-6.3,3.7-9.6,2.5c-3.3-1-5.3-3.9-7.6-6.2
		c-7.8-7.9-15.6-15.8-23.4-23.7c-9.1-9.6-18.5-18.8-27.7-28.3c-1.5-1.6-3.4-2.6-5.2-3.8c-26-16.6-52-33.3-78-49.9
		c-1.3-0.8-2.6-1.6-3.8-2.6c-2.7-2.5-3.7-6.5-2.5-9.9C1.4,294.6,4,292.2,7.1,291.5z"/>
	<g>
		<path class="st0" d="M182.1,391.1c5.7-4.5,12.9-7.1,20.1-7.4c8.1-0.2,16.2,2.4,22.5,7.4c3.4,2.9,6.5,6.2,8.6,10.2
			c9.7-6.5,22.9-7.2,33.4-2.1c4.6,2.2,8.7,5.5,11.9,9.5c6.8-6.1,16.1-9.3,25.2-8.6c9.4,0.6,18.5,5.3,24.4,12.8
			c7.7-6.7,18.5-10,28.6-8.1c6.9,1.1,13.3,4.5,18.3,9.4c6.9,6.9,10.8,16.9,10,26.7c-0.4,4.8-1.2,9.6-1.6,14.4
			c-0.8,5.9-1.2,12-2.4,17.9c-1.8,8.6-7.3,16.3-14.6,21.1c-8.7,5.7-20,7.2-29.8,3.8c-6.1-2.1-11.8-5.9-15.7-11.1
			c-8,7-19.3,10.3-29.7,8c-7.8-1.5-14.9-5.9-19.9-12.2c-7.7,6.7-18.4,10-28.6,8.2c-10.1-1.6-19.3-8.1-24.3-17.1
			c-7.8,5.1-17.9,6.8-26.9,4.4c-9.8-2.4-18.3-9.5-22.6-18.6c-2.5-5.5-3.7-11.7-3-17.8c0.7-6.4,1.5-12.7,2.2-19.1
			c0.6-4.1,0.8-8.2,1.7-12.2C171.6,403,175.9,395.9,182.1,391.1z M199.4,403.1c-5.8,1.5-10.4,6.6-11.2,12.6
			c-1.1,9-2.1,17.9-3.2,26.9c-0.4,2.9-0.2,5.9,1,8.6c2.1,5.1,7.2,8.9,12.7,9.3c7.5,0.9,15-4.7,16.4-12c0.8-6,1.4-11.9,2.2-17.9
			c0.4-4.1,1.2-8.2,1.4-12.4c0.3-5.5-3-10.9-7.8-13.6C207.4,402.5,203.2,402.2,199.4,403.1z M248.9,415c-6.3,1.2-11.6,6.6-12.3,13
			c-1.1,9.1-2.2,18.3-3.3,27.4c-0.7,4.9,1.2,10.1,5,13.4c5.4,5.1,14.6,5.2,20.1,0.3c2.9-2.5,4.9-5.9,5.3-9.7
			c1.1-9.2,2.2-18.4,3.3-27.7c0.6-5.2-1.8-10.6-6.1-13.8C257.6,415.2,253.1,414.2,248.9,415z M297.5,419.4c-4.1,1.1-7.8,4-9.8,7.9
			c-1.2,2.2-1.6,4.7-1.8,7.2c-1,8.4-2,16.8-3,25.3c-1,7.3,4.1,14.7,11.1,16.5c3.5,0.9,7.3,0.7,10.5-0.9c4.7-2.1,8.2-6.8,8.8-11.9
			c0.8-6.9,1.6-13.8,2.5-20.8c0.3-3.3,1-6.5,0.8-9.8c-0.3-4.8-3.2-9.1-7.1-11.7C306,419,301.5,418.4,297.5,419.4z M348.1,423.5
			c-6.3,1.2-11.6,6.7-12.2,13.1c-0.9,6.9-1.7,13.8-2.5,20.7c-0.3,3.1-1,6.3-0.8,9.4c0.2,5.3,3.6,10.2,8.2,12.6c4.3,2.3,9.7,2.3,14,0
			c4.5-2.2,7.8-6.8,8.3-11.8c0.7-5.4,1.3-10.9,2-16.3c0.4-4.3,1.2-8.5,1.3-12.9c0.2-5.2-2.8-10.1-7-12.9
			C356,423.4,351.9,422.8,348.1,423.5z"/>
	</g>
</g>
</svg>
